PathFileType	4	(X/Y/Z)	G:\マイドライブ\biomec\experimentalData\240725\SJ2.trc
DataRate	CameraRate	NumFrames	NumMarkers	Units	OrigDataRate	OrigDataStartFrame	OrigNumFrames
200.00	200.00	      4	52	mm	200.00	232	      1851
Frame#	Time	handR			wrRI			wrRO			elbRI			elbRO			shRF			shRU			shRB			handL			wrLI			wrLO			elbLI			elbLO			shLF			shLU			shLB			toeR			baRI			baRO			heelR			anRI			anRO			knRI			knRO			troR			toeL			baLI			baLO			heelL			anLI			anLO			knLI			knLO			troL			head			earR			earL			clav			c7			ribR			ribL			xiph			ASISR			ASISL			PSISR			PSISL			t8			t11			L1			L3			LS			COX			
		X1	Y1	Z1	X2	Y2	Z2	X3	Y3	Z3	X4	Y4	Z4	X5	Y5	Z5	X6	Y6	Z6	X7	Y7	Z7	X8	Y8	Z8	X9	Y9	Z9	X10	Y10	Z10	X11	Y11	Z11	X12	Y12	Z12	X13	Y13	Z13	X14	Y14	Z14	X15	Y15	Z15	X16	Y16	Z16	X17	Y17	Z17	X18	Y18	Z18	X19	Y19	Z19	X20	Y20	Z20	X21	Y21	Z21	X22	Y22	Z22	X23	Y23	Z23	X24	Y24	Z24	X25	Y25	Z25	X26	Y26	Z26	X27	Y27	Z27	X28	Y28	Z28	X29	Y29	Z29	X30	Y30	Z30	X31	Y31	Z31	X32	Y32	Z32	X33	Y33	Z33	X34	Y34	Z34	X35	Y35	Z35	X36	Y36	Z36	X37	Y37	Z37	X38	Y38	Z38	X39	Y39	Z39	X40	Y40	Z40	X41	Y41	Z41	X42	Y42	Z42	X43	Y43	Z43	X44	Y44	Z44	X45	Y45	Z45	X46	Y46	Z46	X47	Y47	Z47	X48	Y48	Z48	X49	Y49	Z49	X50	Y50	Z50	X51	Y51	Z51	X52	Y52	Z52	

232	1.155	226.50433	1446.25269	807.02551	229.19492	1499.02344	885.35706	279.08688	1448.79736	892.91534	351.06500	1552.11511	1100.57666	278.01953	1551.70203	1114.23193	355.44659	1471.31592	1401.00305	306.02719	1567.69165	1385.66943	308.29483	1516.04114	1422.55627	768.33112	1573.47632	770.29889	741.50287	1621.57617	849.48230	729.88721	1546.87012	847.69965	644.71149	1614.88245	1070.44873	712.61176	1643.23328	1078.75061	675.36609	1526.92126	1369.04150	706.44244	1585.40527	1386.55615	669.44739	1639.91028	1345.87231	283.85071	1427.63074	37.40854	336.00281	1507.43738	45.62954	221.95340	1528.61743	82.87981	326.75201	1690.25500	141.24071	364.06851	1577.12830	163.54863	271.10980	1600.47375	180.76022	429.98599	1383.19177	469.95419	322.05447	1365.23108	477.60406	309.84161	1465.29077	868.33069	531.16357	1425.86292	55.75270	482.61469	1496.33813	56.03353	595.44714	1524.00122	50.08625	532.79260	1710.69531	41.49926	497.29901	1620.23840	134.88763	584.56494	1640.38879	105.65390	514.63745	1556.63269	480.38541	621.45831	1541.05383	476.13055	650.96448	1499.35645	861.38574	572.18781	1470.23315	1695.13379	472.22208	1433.03259	1538.99927	621.62482	1480.08838	1513.21936	521.24927	1475.19397	1382.11975	509.46725	1591.88135	1465.82544	384.00882	1460.54321	1104.69519	609.50110	1483.66736	1089.73267	512.66479	1438.14734	1229.62964	382.38278	1420.73840	966.06726	601.55969	1442.98804	971.07666	414.85883	1599.07568	985.08899	536.80725	1605.17944	990.13403	484.16357	1656.09851	1248.10168	480.64154	1628.16663	1122.30286	481.91202	1608.28259	1066.22437	476.62045	1604.12939	1019.57196	476.55661	1612.96765	980.31946	474.03961	1631.32129	875.33276	
233	1.160	227.84944	1444.00317	807.73328	230.21422	1496.94812	885.96436	280.30267	1446.84912	893.37469	351.02884	1551.58899	1101.51245	278.74692	1550.27966	1114.69128	356.80194	1469.91968	1401.30994	307.13617	1566.11755	1386.11450	309.64642	1514.75122	1422.82788	768.53741	1574.80554	769.54297	742.25037	1621.83557	849.26166	730.75299	1547.09558	847.15668	645.44043	1614.68628	1070.27344	713.39832	1643.01392	1078.50977	676.27533	1526.49475	1368.80383	707.37231	1585.31897	1386.18445	670.17719	1639.45117	1345.32495	285.73804	1424.64832	38.73811	337.61185	1504.50256	47.71518	223.79132	1525.32996	85.15314	328.47952	1686.55566	144.74033	365.86951	1572.71497	165.89549	273.01877	1596.26563	183.61647	431.96371	1377.25671	471.51538	323.91653	1359.44031	478.97687	310.91187	1462.21191	868.68738	531.14746	1425.83337	55.64705	482.67130	1496.31274	56.00919	595.53754	1523.98486	50.10128	532.80560	1710.68140	41.54524	497.30051	1620.12952	134.96948	584.57593	1640.33899	105.70606	514.42596	1556.19678	480.28555	621.89185	1540.38892	476.12180	651.57935	1498.61548	861.31482	574.30945	1469.34717	1694.83582	473.82108	1432.02649	1539.11475	623.23834	1479.39490	1512.36938	522.61523	1474.06921	1382.10522	510.67389	1590.86060	1465.69592	384.93564	1458.80847	1104.81970	610.38239	1482.77039	1089.54846	514.05396	1437.02795	1229.64844	383.31543	1418.99475	966.41614	602.27338	1442.17834	970.95667	414.94025	1597.07861	985.10028	536.72186	1604.10913	989.99622	484.73468	1654.77856	1247.95923	481.02603	1626.67566	1122.19922	482.18240	1606.76929	1066.02051	476.91077	1602.71802	1019.61023	476.70160	1611.62622	980.29462	473.79584	1629.23450	875.03534	
234	1.165	229.22734	1441.78284	808.14624	232.19185	1494.89661	886.25525	281.78632	1444.90222	893.96033	352.12430	1550.64258	1101.68042	279.85608	1548.64795	1115.11401	358.10202	1468.40527	1401.72412	308.14642	1564.51208	1386.68933	311.01773	1513.02258	1423.20874	770.58984	1574.26367	769.86554	743.10199	1621.79712	848.95471	732.00726	1547.21655	846.83447	646.15344	1614.37305	1069.93970	714.22021	1642.86682	1078.29590	677.19147	1526.19409	1368.41211	708.35693	1585.07520	1385.85999	670.70813	1639.08838	1344.92456	287.49261	1421.27234	40.21081	339.67294	1501.14258	49.72790	225.54466	1521.78223	87.28371	330.42172	1682.33215	147.98506	367.57001	1568.05981	168.42487	274.73361	1591.99561	186.21609	434.55997	1371.85376	472.87222	325.55023	1353.70227	480.32938	311.40543	1459.99292	868.96149	531.11499	1425.77991	55.55430	482.70786	1496.26868	55.97700	595.56488	1523.97961	50.06305	532.79437	1710.66748	41.60375	497.32516	1620.00293	135.02878	584.59729	1640.27014	105.77213	515.18500	1554.65759	480.36606	622.13635	1539.73108	476.05621	651.94012	1498.09229	861.21564	576.47473	1468.41675	1694.51782	475.87149	1430.80103	1539.09290	624.89093	1478.85767	1512.24451	523.97290	1473.10400	1382.07300	511.57083	1590.07861	1465.60266	385.82874	1457.25208	1105.17859	611.16943	1481.64587	1089.38306	515.15332	1435.85388	1229.73633	384.69272	1416.21594	966.90643	603.07526	1441.28723	970.91376	415.20886	1595.51685	985.24030	536.99078	1602.72583	989.81897	484.94360	1653.70752	1247.84937	481.25696	1625.36792	1122.14880	482.50885	1605.53381	1066.04688	477.15762	1601.25024	1019.72424	476.89545	1610.24011	980.19464	473.44254	1627.65991	874.99133	
235	1.170	230.73763	1439.32434	808.70172	231.93951	1493.02332	887.11432	282.81985	1442.93262	894.47266	353.20322	1548.78113	1102.34009	280.56424	1547.31934	1115.61194	359.21063	1466.69836	1402.13135	309.19180	1562.85693	1387.08057	312.08755	1511.54065	1423.61609	771.38538	1574.44446	769.44684	743.79578	1621.76855	848.64050	733.27838	1547.04993	846.44946	647.28033	1614.64307	1069.88013	714.98492	1642.66650	1077.94446	678.28156	1525.95471	1368.10022	709.22839	1584.82275	1385.44873	671.24335	1638.74390	1344.61182	289.33032	1417.44800	41.95089	341.45044	1497.11145	51.86365	227.41959	1517.77502	89.01239	332.37900	1677.80493	150.74513	369.53714	1563.95569	170.96539	276.60495	1587.70288	188.83258	436.24799	1366.43567	474.11240	327.13248	1347.84741	481.71252	312.22495	1457.44312	869.34088	531.09753	1425.78040	55.47776	482.81329	1496.33362	55.82961	595.57104	1523.94995	50.00739	532.78546	1710.65942	41.65350	497.32477	1619.84204	135.08936	584.56226	1640.30811	105.78607	515.23767	1553.93408	480.23721	622.27258	1539.15576	475.98456	652.33545	1497.53186	861.04596	578.82489	1467.46057	1694.29260	477.70566	1429.80029	1539.09253	625.21295	1479.19531	1512.82935	525.26202	1472.34888	1382.12268	512.72229	1589.01904	1465.65417	386.55942	1455.37354	1105.44922	611.80737	1480.90393	1089.29309	516.41815	1434.68372	1229.81409	385.72919	1414.64258	967.12909	604.31177	1440.23938	970.84509	413.95166	1594.65930	985.72430	537.27087	1601.71729	989.68542	485.45325	1652.20557	1247.63538	481.47754	1623.89111	1122.07678	482.87125	1603.82642	1065.87463	477.40652	1599.71118	1019.70795	476.82883	1608.72241	980.19867	473.11301	1626.11218	874.99023	
